# xmcd
#
# Track frame offsets: 
#        150
#        16457
#        33017
#        44812
#        60370
#        75131
#        89304
#        101986
#        119811
#        136136
#        148109
#        159806
#        171811
#        190563
#        210226
#        226141
#        240716
#        258988
#        275410
#        290298
#        304362
#
# Disc length: 4308 seconds
#
# Revision: 0
# Processed by: cddbd v1.5.2PL0 Copyright (c) Steve Scherf et al.
# Submitted via: ExactAudioCopy v0.90b4
#
DISCID=1710d215
DTITLE=Various Artist - Promo Only Radio Essentials Series Disc 31
DYEAR=1900
DGENRE=Country
TTITLE0=Shania Twain - Don't Be Stupid
TTITLE1=Alan Jackson - Mercury Blues
TTITLE2=Mark Chestnut - Goin' Through The Big D
TTITLE3=Bellamy Bros. - Redneck Girl
TTITLE4=Carlene Carter - Every Little Thing
TTITLE5=Bryan White - Sittin' On Go
TTITLE6=Shennandoah - If Bubba Can Dance
TTITLE7=Hank Williams Jr. - All My Rowdy Friends
TTITLE8=Charlie Danies Band - The Devil Went Down To Georgia
TTITLE9=Oak Ridge Boys - Elvira
TTITLE10=Steve Earle - Guitar Town
TTITLE11=Earnest Tubbs - Waltz Across Texas
TTITLE12=Alabama - Angles Among Us
TTITLE13=Tracy Byrd - The Keeper Of The Stars
TTITLE14=Brooks and Dunn - Neon Moon
TTITLE15=George Strait - I Cross My Heart
TTITLE16=Martina McBride - Valentine
TTITLE17=J. Michael Montgomery - I Love The Way You Love Me
TTITLE18=Ray Charles - Georgia On My Mind
TTITLE19=Dean Martin - That's Amore
TTITLE20=Al Cherny - Butterfly
EXTD=
EXTT0=
EXTT1=
EXTT2=
EXTT3=
EXTT4=
EXTT5=
EXTT6=
EXTT7=
EXTT8=
EXTT9=
EXTT10=
EXTT11=
EXTT12=
EXTT13=
EXTT14=
EXTT15=
EXTT16=
EXTT17=
EXTT18=
EXTT19=
EXTT20=
PLAYORDER=
